<svg width="218" height="206" viewBox="0 0 218 206" fill="none" xmlns="http://www.w3.org/2000/svg">
<path d="M25.4602 180.532V25.4602C25.4602 25.4602 25.4602 29.5657 25.4602 37.7767C25.4602 45.9876 25.4602 56.5808 25.4602 69.5562V136.57C25.4602 149.545 25.4602 160.116 25.4602 168.283C25.4602 176.449 25.4602 180.532 25.4602 180.532ZM25.4602 205.992C18.4129 205.992 12.4077 203.511 7.44464 198.548C2.48155 193.585 0 187.579 0 180.532V25.4602C0 18.4129 2.48155 12.4077 7.44464 7.44464C12.4077 2.48155 18.4129 0 25.4602 0H180.532C187.579 0 193.585 2.48155 198.548 7.44464C203.511 12.4077 205.992 18.4129 205.992 25.4602V52.6355H180.532V25.4602H25.4602V180.532H180.532V153.357H205.992V180.532C205.992 187.579 203.511 193.585 198.548 198.548C193.585 203.511 187.579 205.992 180.532 205.992H25.4602ZM114.321 158.952C108.129 158.952 102.829 156.772 98.4191 152.411C94.0096 148.05 91.8049 142.77 91.8049 136.57V69.5562C91.8049 63.3642 94.0096 58.0635 98.4191 53.654C102.829 49.2446 108.129 47.0398 114.321 47.0398H194.734C200.934 47.0398 206.225 49.2446 210.609 53.654C214.992 58.0635 217.184 63.3642 217.184 69.5562V136.603C217.184 142.749 214.992 148.011 210.609 152.387C206.225 156.764 200.934 158.952 194.734 158.952H114.321ZM194.868 136.57V69.4224H114.187V136.57H194.868ZM147.761 119.783C152.424 119.783 156.388 118.151 159.652 114.887C162.916 111.623 164.548 107.659 164.548 102.996C164.548 98.3331 162.916 94.3696 159.652 91.1054C156.388 87.8413 152.424 86.2093 147.761 86.2093C143.098 86.2093 139.135 87.8413 135.87 91.1054C132.606 94.3696 130.974 98.3331 130.974 102.996C130.974 107.659 132.606 111.623 135.87 114.887C139.135 118.151 143.098 119.783 147.761 119.783Z" fill="#49454F" fill-opacity="0.7"/>
</svg>
