<svg width="128" height="142" viewBox="0 0 128 142" fill="none" xmlns="http://www.w3.org/2000/svg">
<path d="M63.7207 141.446L0 106.084V35.3615L63.7207 0L127.441 35.3615V106.084L63.7207 141.446ZM42.9519 52.9373C45.6035 49.931 48.7265 47.5922 52.321 45.921C55.9155 44.2498 59.7154 43.4142 63.7207 43.4142C67.726 43.4142 71.5259 44.2498 75.1204 45.921C78.7149 47.5922 81.8379 49.931 84.4895 52.9373L110.398 38.4984L63.7207 12.5478L17.0432 38.4984L42.9519 52.9373ZM58.259 125.873V97.5416C51.845 96.1225 46.6003 92.9202 42.5249 87.9345C38.4496 82.9489 36.4119 77.2117 36.4119 70.723C36.4119 69.2478 36.5076 67.8637 36.699 66.5706C36.8904 65.2775 37.2149 63.954 37.6723 62.6003L10.9233 47.6152V99.6285L58.259 125.873ZM63.7207 87.1085C68.2862 87.1085 72.1585 85.5189 75.3376 82.3399C78.5167 79.1608 80.1062 75.2885 80.1062 70.723C80.1062 66.1574 78.5167 62.2851 75.3376 59.1061C72.1585 55.927 68.2862 54.3375 63.7207 54.3375C59.1552 54.3375 55.2829 55.927 52.1038 59.1061C48.9247 62.2851 47.3352 66.1574 47.3352 70.723C47.3352 75.2885 48.9247 79.1608 52.1038 82.3399C55.2829 85.5189 59.1552 87.1085 63.7207 87.1085ZM69.1824 125.873L116.518 99.6285V47.6152L89.7691 62.6003C90.2266 63.954 90.551 65.2775 90.7424 66.5706C90.9338 67.8637 91.0295 69.2478 91.0295 70.723C91.0295 77.2117 88.9918 82.9489 84.9165 87.9345C80.8412 92.9202 75.5964 96.1225 69.1824 97.5416V125.873Z" fill="#52E4D5"/>
</svg>
