<svg width="151" height="191" viewBox="0 0 151 191" fill="none" xmlns="http://www.w3.org/2000/svg">
<path d="M18.172 191C13.0941 191 8.79601 189.241 5.27761 185.722C1.7592 182.204 0 177.906 0 172.828V58.3827C0 53.3048 1.7592 49.0067 5.27761 45.4883C8.79601 41.9699 13.0941 40.2107 18.172 40.2107H37.6973V37.6973C37.6973 27.2838 41.3768 18.3976 48.7359 11.0385C56.0949 3.67952 64.9812 0 75.3947 0C85.8081 0 94.6944 3.67952 102.053 11.0385C109.412 18.3976 113.092 27.2838 113.092 37.6973V40.2107H132.617C137.695 40.2107 141.993 41.9699 145.512 45.4883C149.03 49.0067 150.789 53.3048 150.789 58.3827V172.828C150.789 177.906 149.03 182.204 145.512 185.722C141.993 189.241 137.695 191 132.617 191H18.172ZM18.172 175.921H132.617C133.391 175.921 134.1 175.599 134.744 174.955C135.388 174.31 135.711 173.601 135.711 172.828V58.3827C135.711 57.6093 135.388 56.9004 134.744 56.256C134.1 55.6115 133.391 55.2893 132.617 55.2893H113.092V77.908C113.092 80.0474 112.37 81.8388 110.927 83.2822C109.483 84.7256 107.692 85.4473 105.553 85.4473C103.413 85.4473 101.622 84.7256 100.178 83.2822C98.7351 81.8388 98.0133 80.0474 98.0133 77.908V55.2893H52.776V77.908C52.776 80.0474 52.0543 81.8388 50.6108 83.2822C49.1674 84.7256 47.376 85.4473 45.2366 85.4473C43.0973 85.4473 41.3059 84.7256 39.8625 83.2822C38.419 81.8388 37.6973 80.0474 37.6973 77.908V55.2893H18.172C17.3987 55.2893 16.6898 55.6115 16.0453 56.256C15.4009 56.9004 15.0786 57.6093 15.0786 58.3827V172.828C15.0786 173.601 15.4009 174.31 16.0453 174.955C16.6898 175.599 17.3987 175.921 18.172 175.921ZM52.776 40.2107H98.0133V37.6973C98.0133 31.395 95.8191 26.0497 91.4307 21.6613C87.0423 17.2728 81.697 15.0786 75.3947 15.0786C69.0923 15.0786 63.747 17.2728 59.3586 21.6613C54.9702 26.0497 52.776 31.395 52.776 37.6973V40.2107ZM15.0786 175.921C15.0786 175.921 15.0786 175.599 15.0786 174.955C15.0786 174.31 15.0786 173.601 15.0786 172.828V58.3827C15.0786 57.6093 15.0786 56.9004 15.0786 56.256C15.0786 55.6115 15.0786 55.2893 15.0786 55.2893C15.0786 55.2893 15.0786 55.6115 15.0786 56.256C15.0786 56.9004 15.0786 57.6093 15.0786 58.3827V172.828C15.0786 173.601 15.0786 174.31 15.0786 174.955C15.0786 175.599 15.0786 175.921 15.0786 175.921Z" fill="#334155"/>
</svg>
