<svg width="169" height="187" viewBox="0 0 169 187" fill="none" xmlns="http://www.w3.org/2000/svg">
<path d="M84.1744 186.849L0 140.136V46.7122L84.1744 0L168.349 46.7122V140.136L84.1744 186.849ZM56.7391 69.9296C60.2417 65.9583 64.3672 62.8688 69.1155 60.6612C73.8638 58.4535 78.8834 57.3497 84.1744 57.3497C89.4654 57.3497 94.485 58.4535 99.2333 60.6612C103.982 62.8688 108.107 65.9583 111.61 69.9296L145.835 50.856L84.1744 16.5755L22.5138 50.856L56.7391 69.9296ZM76.9596 166.277V128.852C68.4867 126.977 61.5584 122.747 56.175 116.161C50.7915 109.575 48.0998 101.996 48.0998 93.4243C48.0998 91.4756 48.2262 89.6472 48.479 87.9391C48.7318 86.2309 49.1604 84.4826 49.7648 82.6943L14.4296 62.8992V131.608L76.9596 166.277ZM84.1744 115.069C90.2054 115.069 95.3207 112.97 99.5202 108.77C103.72 104.571 105.819 99.4553 105.819 93.4243C105.819 87.3933 103.72 82.278 99.5202 78.0785C95.3207 73.879 90.2054 71.7793 84.1744 71.7793C78.1434 71.7793 73.0281 73.879 68.8286 78.0785C64.6291 82.278 62.5293 87.3933 62.5293 93.4243C62.5293 99.4553 64.6291 104.571 68.8286 108.77C73.0281 112.97 78.1434 115.069 84.1744 115.069ZM91.3892 166.277L153.919 131.608V62.8992L118.584 82.6943C119.188 84.4826 119.617 86.2309 119.87 87.9391C120.123 89.6472 120.249 91.4756 120.249 93.4243C120.249 101.996 117.557 109.575 112.174 116.161C106.79 122.747 99.8621 126.977 91.3892 128.852V166.277Z" fill="#52E4D5"/>
</svg>
