<svg width="172" height="172" viewBox="0 0 172 172" fill="none" xmlns="http://www.w3.org/2000/svg">
<path d="M85.6387 128.897L36.8909 80.1494L48.924 67.765L77.075 95.916V0H94.2024V95.916L122.353 67.765L134.386 80.1494L85.6387 128.897ZM20.6411 171.277C14.8733 171.277 9.99114 169.279 5.99468 165.283C1.99823 161.286 0 156.404 0 150.636V119.675H17.1274V150.636C17.1274 151.515 17.4934 152.32 18.2254 153.052C18.9574 153.784 19.7626 154.15 20.6411 154.15H150.636C151.515 154.15 152.32 153.784 153.052 153.052C153.784 152.32 154.15 151.515 154.15 150.636V119.675H171.277V150.636C171.277 156.404 169.279 161.286 165.283 165.283C161.286 169.279 156.404 171.277 150.636 171.277H20.6411Z" fill="#059669"/>
</svg>
