<svg width="215" height="168" viewBox="0 0 215 168" fill="none" xmlns="http://www.w3.org/2000/svg">
<path d="M21.0465 167.118C15.2347 167.118 10.274 165.063 6.16438 160.953C2.05479 156.844 0 151.883 0 146.071C0 140.259 2.05479 135.289 6.16438 131.16C10.274 127.031 15.2347 124.967 21.0465 124.967C22.0892 124.967 23.0305 124.986 23.8702 125.025C24.71 125.063 25.59 125.243 26.5102 125.565L67.2753 84.8001C66.9534 83.8799 66.7732 82.9999 66.7347 82.1601C66.6962 81.3203 66.6769 80.3791 66.6769 79.3364C66.6769 73.5246 68.7414 68.5542 72.8702 64.4254C76.999 60.2966 81.9694 58.2321 87.7812 58.2321C93.5931 58.2321 98.5634 60.2966 102.692 64.4254C106.821 68.5542 108.885 73.5246 108.885 79.3364C108.885 79.9662 108.686 81.7297 108.287 84.6269L130.777 107.117C131.659 106.795 132.5 106.615 133.301 106.576C134.103 106.538 135.025 106.518 136.067 106.518C137.11 106.518 138.042 106.538 138.862 106.576C139.683 106.615 140.534 106.795 141.416 107.117L172.639 75.9512C172.317 75.0694 172.137 74.2086 172.098 73.3689C172.06 72.5291 172.041 71.5879 172.041 70.5452C172.041 64.7333 174.105 59.7726 178.234 55.663C182.363 51.5534 187.333 49.4986 193.145 49.4986C198.957 49.4986 203.917 51.5534 208.027 55.663C212.137 59.7726 214.191 64.7333 214.191 70.5452C214.191 76.357 212.137 81.3274 208.027 85.4562C203.917 89.585 198.957 91.6495 193.145 91.6495C192.102 91.6495 191.161 91.6302 190.321 91.5917C189.481 91.5532 188.621 91.373 187.739 91.0511L156.573 122.274C156.895 123.156 157.075 124.007 157.114 124.828C157.152 125.648 157.172 126.58 157.172 127.623C157.172 133.434 155.107 138.405 150.978 142.534C146.85 146.662 141.879 148.727 136.067 148.727C130.256 148.727 125.285 146.662 121.156 142.534C117.028 138.405 114.963 133.434 114.963 127.623C114.963 126.58 114.982 125.639 115.021 124.799C115.059 123.959 115.24 123.079 115.562 122.159L93.2449 99.8423C92.3247 100.164 91.4447 100.344 90.6049 100.383C89.7652 100.421 88.8239 100.441 87.7812 100.441C87.1514 100.441 85.3879 100.241 82.4907 99.8423L41.5525 140.781C41.8744 141.662 42.0546 142.504 42.0931 143.305C42.1316 144.106 42.1508 145.028 42.1508 146.071C42.1508 151.883 40.0864 156.844 35.9576 160.953C31.8287 165.063 26.8584 167.118 21.0465 167.118ZM29.8378 70.8234L23.3401 56.8623L9.37906 50.3647L23.3401 43.867L29.8378 29.906L36.3354 43.867L50.2964 50.3647L36.3354 56.8623L29.8378 70.8234ZM136.067 62.1004L126.258 40.8596L105.017 31.0502L126.258 21.183L136.067 0L145.935 21.183L167.118 31.0502L145.935 40.8596L136.067 62.1004Z" fill="#49454F" fill-opacity="0.7"/>
</svg>
