<svg width="154" height="170" viewBox="0 0 154 170" fill="none" xmlns="http://www.w3.org/2000/svg">
<path d="M76.3519 20.9621C91.4279 20.9621 105.65 24.2062 119.02 30.6945C132.389 37.1827 143.538 46.5312 152.467 58.7399C153.355 59.8587 153.635 60.8761 153.306 61.792C152.977 62.7079 152.412 63.4675 151.611 64.0708C150.811 64.6741 149.91 64.9432 148.908 64.878C147.907 64.8128 147.031 64.2585 146.28 63.2152C138.328 51.9828 128.158 43.3939 115.77 37.4487C103.383 31.5034 90.2431 28.5307 76.3519 28.5307C62.5198 28.5307 49.5159 31.5308 37.3401 37.5309C25.1643 43.5311 15.0562 52.0925 7.01581 63.2152C6.21507 64.3889 5.29915 65.0196 4.26806 65.1074C3.23696 65.1951 2.32104 64.9099 1.5203 64.2518C0.71408 63.6485 0.22459 62.8944 0.0518284 61.9894C-0.120933 61.0845 0.138209 60.1439 0.829254 59.1677C9.72525 47.1564 20.7872 37.786 34.0152 31.0564C47.2432 24.3269 61.3555 20.9621 76.3519 20.9621ZM76.3557 41.0686C95.4943 41.0686 111.939 47.4461 125.688 60.2011C139.438 72.9562 146.313 88.7583 146.313 107.607C146.313 114.62 143.83 120.476 138.863 125.174C133.897 129.873 127.846 132.222 120.711 132.222C113.603 132.222 107.488 129.873 102.365 125.174C97.2427 120.476 94.6814 114.62 94.6814 107.607C94.6814 102.792 92.8941 98.7252 89.3195 95.407C85.7449 92.0888 81.4772 90.4297 76.5165 90.4297C71.5108 90.4297 67.2045 92.0814 63.5975 95.3848C59.9905 98.6882 58.1869 102.762 58.1869 107.607C58.1869 121.604 62.3415 133.291 70.6507 142.67C78.9598 152.049 89.6027 158.592 102.579 162.3C103.728 162.676 104.509 163.303 104.922 164.182C105.334 165.06 105.398 166.001 105.113 167.004C104.828 167.883 104.312 168.651 103.566 169.309C102.82 169.967 101.833 170.154 100.605 169.868C85.9938 166.161 74.01 158.821 64.6533 147.849C55.2966 136.877 50.6183 123.464 50.6183 107.607C50.6183 100.587 53.1577 94.7077 58.2364 89.9691C63.3151 85.2304 69.4103 82.8611 76.5221 82.8611C83.6339 82.8611 89.6999 85.2304 94.7199 89.9691C99.74 94.7077 102.25 100.587 102.25 107.607C102.25 112.452 104.079 116.527 107.737 119.83C111.395 123.133 115.711 124.785 120.686 124.785C125.661 124.785 129.914 123.126 133.446 119.808C136.979 116.49 138.745 112.423 138.745 107.607C138.745 90.9266 132.621 76.9061 120.374 65.5459C108.126 54.1857 93.5018 48.5056 76.4998 48.5056C59.4977 48.5056 44.8951 54.1938 32.6919 65.5702C20.4887 76.9467 14.3871 90.9152 14.3871 107.476C14.3871 110.926 14.7491 115.238 15.473 120.413C16.197 125.587 17.7436 131.597 20.113 138.442C20.4859 139.561 20.464 140.551 20.0472 141.412C19.6304 142.273 18.9064 142.917 17.8753 143.345C16.8442 143.773 15.8625 143.763 14.9301 143.315C13.9977 142.867 13.3451 142.131 12.9721 141.107C10.7783 135.381 9.20422 129.801 8.2499 124.366C7.29558 118.93 6.81842 113.344 6.81842 107.607C6.81842 88.7583 13.6587 72.9562 27.3393 60.2011C41.02 47.4461 57.3587 41.0686 76.3557 41.0686ZM76.5165 0C85.5706 0 94.4125 1.10514 103.042 3.31543C111.672 5.52572 120.019 8.69855 128.082 12.8339C129.311 13.4921 130.019 14.2791 130.205 15.195C130.391 16.1109 130.298 17.0131 129.925 17.9016C129.552 18.7901 128.908 19.4647 127.992 19.9254C127.076 20.3861 126.042 20.3148 124.89 19.7115C117.388 15.6968 109.567 12.6693 101.43 10.629C93.2919 8.58878 84.9742 7.56865 76.4764 7.56865C68.1227 7.56865 59.9256 8.58604 51.8852 10.6208C43.8448 12.6556 36.106 15.6859 28.6689 19.7115C27.8024 20.26 26.8673 20.3834 25.8636 20.0817C24.8599 19.7801 24.1278 19.1411 23.6671 18.1649C23.2064 17.1886 23.0775 16.2782 23.2804 15.4336C23.4833 14.589 24.0729 13.865 25.0492 13.2617C32.9799 8.92889 41.2945 5.6354 49.993 3.38124C58.6916 1.12708 67.5327 0 76.5165 0ZM76.5203 61.899C89.6698 61.899 100.953 66.3004 110.37 75.1031C119.787 83.9059 124.496 94.7406 124.496 107.607C124.496 108.743 124.149 109.657 123.455 110.351C122.761 111.045 121.847 111.392 120.711 111.392C119.735 111.392 118.86 111.045 118.087 110.351C117.314 109.657 116.927 108.743 116.927 107.607C116.927 96.8028 112.929 87.745 104.934 80.4341C96.9387 73.1231 87.4668 69.4676 76.5183 69.4676C65.5699 69.4676 56.1412 73.1231 48.2324 80.4341C40.3237 87.745 36.3693 96.8007 36.3693 107.601C36.3693 119.266 38.3931 129.14 42.4407 137.224C46.4883 145.308 52.3623 153.464 60.0627 161.692C60.9183 162.558 61.3049 163.493 61.2227 164.496C61.1404 165.5 60.7537 166.347 60.0627 167.038C59.3168 167.784 58.442 168.171 57.4383 168.198C56.4347 168.226 55.5325 167.839 54.7317 167.038C46.4829 158.307 40.0989 149.329 35.5796 140.104C31.0603 130.879 28.8006 120.046 28.8006 107.605C28.8006 94.7397 33.4666 83.9059 42.7984 75.1031C52.1303 66.3004 63.3709 61.899 76.5203 61.899ZM76.2033 103.823C77.3335 103.823 78.2496 104.202 78.9516 104.958C79.6536 105.715 80.0046 106.598 80.0046 107.607C80.0046 118.471 83.8959 127.379 91.6786 134.331C99.4612 141.284 108.568 144.76 119 144.76C120.13 144.76 121.479 144.689 123.048 144.546C124.616 144.404 126.229 144.19 127.885 143.904C128.949 143.674 129.862 143.825 130.625 144.357C131.387 144.889 131.911 145.72 132.196 146.85C132.481 147.855 132.295 148.734 131.636 149.487C130.978 150.241 130.134 150.76 129.103 151.045C127.029 151.594 125.058 151.945 123.188 152.098C121.317 152.252 119.921 152.329 119 152.329C106.473 152.329 95.5809 148.09 86.3229 139.612C77.0649 131.134 72.436 120.466 72.436 107.607C72.436 106.598 72.7813 105.715 73.472 104.958C74.1626 104.202 75.0731 103.823 76.2033 103.823Z" fill="#52E4D5"/>
</svg>
