<svg width="102" height="98" viewBox="0 0 102 98" fill="none" xmlns="http://www.w3.org/2000/svg">
<path d="M35.1851 97.252L26.3888 82.4272L9.68728 78.7684L11.3176 61.5739L0 48.626L11.3176 35.678L9.68728 18.4836L26.3888 14.8248L35.1851 0L50.9009 6.67304L66.6166 0L75.4129 14.8248L92.1145 18.4836L90.4841 35.678L101.802 48.626L90.4841 61.5739L92.1145 78.7684L75.4129 82.4272L66.6166 97.252L50.9009 90.5789L35.1851 97.252ZM38.332 87.8113L50.9009 82.4842L63.6214 87.8113L70.6168 75.9818L84.1714 72.8727L82.9392 58.9768L92.0578 48.626L82.9392 38.1235L84.1714 24.2276L70.6168 21.2702L63.4697 9.44065L50.9009 14.7677L38.1803 9.44065L31.185 21.2702L17.6303 24.2276L18.8626 38.1235L9.74395 48.626L18.8626 58.9768L17.6303 73.0244L31.185 75.9818L38.332 87.8113ZM45.7254 64.4175L71.8678 38.2751L66.6736 32.9292L45.7254 53.8774L35.1282 43.4317L29.9339 48.626L45.7254 64.4175Z" fill="#20786F"/>
</svg>
