<svg width="124" height="133" viewBox="0 0 124 133" fill="none" xmlns="http://www.w3.org/2000/svg">
<path d="M0 132.627V16.2656C0 11.7633 1.58537 7.92685 4.75611 4.75611C7.92685 1.58537 11.7633 0 16.2656 0H59.1637C63.666 0 67.5025 1.58537 70.6732 4.75611C73.844 7.92685 75.4293 11.7633 75.4293 16.2656V67.6385H83.3484C87.3947 67.6385 90.8465 69.06 93.7038 71.9031C96.5611 74.7461 97.9897 78.1908 97.9897 82.2371V114.411C97.9897 116.352 98.6393 117.979 99.9384 119.292C101.238 120.605 102.857 121.261 104.798 121.261C106.739 121.261 108.366 120.605 109.679 119.292C110.992 117.979 111.648 116.352 111.648 114.411V60.5393C110.604 61.0496 109.508 61.3941 108.359 61.5729C107.21 61.7516 106.023 61.841 104.797 61.841C99.7089 61.841 95.4079 60.0801 91.8944 56.5583C88.3808 53.0365 86.6241 48.7253 86.6241 43.6248C86.6241 39.8686 87.6382 36.4641 89.6666 33.4112C91.6949 30.3584 94.4227 28.1338 97.8498 26.7375L82.921 11.8087L90.8556 3.83131L116.412 28.6726C118.427 30.688 120.031 32.9799 121.224 35.5483C122.417 38.1168 123.014 40.8089 123.014 43.6248V114.411C123.014 119.511 121.25 123.822 117.723 127.344C114.196 130.866 109.888 132.627 104.799 132.627C99.7102 132.627 95.4088 130.866 91.8949 127.344C88.381 123.822 86.6241 119.511 86.6241 114.411V79.0042H75.4293V132.627H0ZM16.2656 52.0141H59.1637V16.2656H16.2656V52.0141ZM104.797 50.4325C106.738 50.4325 108.365 49.7801 109.678 48.4753C110.991 47.1705 111.648 45.5537 111.648 43.6248C111.648 41.6959 110.992 40.0791 109.679 38.7743C108.366 37.4695 106.739 36.8171 104.798 36.8171C102.857 36.8171 101.238 37.4695 99.9384 38.7743C98.6393 40.0791 97.9897 41.6959 97.9897 43.6248C97.9897 45.5537 98.6422 47.1705 99.947 48.4753C101.252 49.7801 102.869 50.4325 104.797 50.4325ZM16.2656 116.361H59.1637V66.3134H16.2656V116.361ZM59.1637 116.361H16.2656H59.1637Z" fill="#006780"/>
</svg>
