<svg width="167" height="213" viewBox="0 0 167 213" fill="none" xmlns="http://www.w3.org/2000/svg">
<path d="M0 181.71V165.075H20.0477V82.3236C20.0477 67.4086 24.6509 54.2212 33.8572 42.7612C43.0636 31.3013 54.8826 23.9718 69.3141 20.7727V13.8627C69.3141 10.0119 70.6607 6.7388 73.3537 4.04328C76.0468 1.34776 79.317 0 83.1642 0C87.0115 0 90.2858 1.34776 92.9873 4.04328C95.6887 6.7388 97.0394 10.0119 97.0394 13.8627V20.7727C111.471 23.9718 123.29 31.3013 132.496 42.7612C141.703 54.2212 146.306 67.4086 146.306 82.3236V165.075H166.354V181.71H0ZM83.1579 212.848C77.6396 212.848 72.9219 210.885 69.0048 206.959C65.0877 203.033 63.1291 198.313 63.1291 192.8H103.224C103.224 198.331 101.26 203.055 97.3299 206.972C93.4002 210.889 88.6762 212.848 83.1579 212.848ZM36.6827 165.075H129.671V82.3236C129.671 69.4844 125.132 58.5256 116.053 49.4472C106.975 40.3688 96.016 35.8295 83.1768 35.8295C70.3376 35.8295 59.3788 40.3688 50.3004 49.4472C41.2219 58.5256 36.6827 69.4844 36.6827 82.3236V165.075Z" fill="#56E4D5"/>
</svg>
